<?xml version="1.0" encoding="UTF-8"?>
<svg xmlns="http://www.w3.org/2000/svg" xmlns:xlink="http://www.w3.org/1999/xlink" width="555pt" height="340pt" viewBox="0 0 555 340" version="1.1">
<g id="surface277">
<rect x="0" y="0" width="555" height="340" style="fill:rgb(100%,100%,100%);fill-opacity:1;stroke:none;"/>
<path style=" stroke:none;fill-rule:nonzero;fill:rgb(56.470588%,93.333333%,56.470588%);fill-opacity:1;" d="M 32.824219 316.949219 L 87.5 316.949219 L 87.5 298.410156 L 32.824219 298.410156 Z M 32.824219 316.949219 "/>
<path style=" stroke:none;fill-rule:nonzero;fill:rgb(56.470588%,93.333333%,56.470588%);fill-opacity:1;" d="M 87.5 316.949219 L 142.175781 316.949219 L 142.175781 298.410156 L 87.5 298.410156 Z M 87.5 316.949219 "/>
<path style=" stroke:none;fill-rule:nonzero;fill:rgb(56.470588%,93.333333%,56.470588%);fill-opacity:1;" d="M 142.175781 316.949219 L 196.851563 316.949219 L 196.851563 205.710938 L 142.175781 205.710938 Z M 142.175781 316.949219 "/>
<path style=" stroke:none;fill-rule:nonzero;fill:rgb(56.470588%,93.333333%,56.470588%);fill-opacity:1;" d="M 196.855469 316.949219 L 251.53125 316.949219 L 251.53125 205.710938 L 196.855469 205.710938 Z M 196.855469 316.949219 "/>
<path style=" stroke:none;fill-rule:nonzero;fill:rgb(56.470588%,93.333333%,56.470588%);fill-opacity:1;" d="M 251.53125 316.949219 L 306.207031 316.949219 L 306.207031 187.171875 L 251.53125 187.171875 Z M 251.53125 316.949219 "/>
<path style=" stroke:none;fill-rule:nonzero;fill:rgb(56.470588%,93.333333%,56.470588%);fill-opacity:1;" d="M 306.207031 316.949219 L 360.882813 316.949219 L 360.882813 20.3125 L 306.207031 20.3125 Z M 306.207031 316.949219 "/>
<path style=" stroke:none;fill-rule:nonzero;fill:rgb(56.470588%,93.333333%,56.470588%);fill-opacity:1;" d="M 360.886719 316.949219 L 415.5625 316.949219 L 415.5625 20.3125 L 360.886719 20.3125 Z M 360.886719 316.949219 "/>
<path style=" stroke:none;fill-rule:nonzero;fill:rgb(56.470588%,93.333333%,56.470588%);fill-opacity:1;" d="M 415.5625 316.949219 L 470.238281 316.949219 L 470.238281 224.25 L 415.5625 224.25 Z M 415.5625 316.949219 "/>
<path style=" stroke:none;fill-rule:nonzero;fill:rgb(56.470588%,93.333333%,56.470588%);fill-opacity:1;" d="M 470.238281 316.949219 L 524.914063 316.949219 L 524.914063 298.410156 L 470.238281 298.410156 Z M 470.238281 316.949219 "/>
</g>
</svg>
