<?xml version="1.0" encoding="UTF-8"?>
<svg xmlns="http://www.w3.org/2000/svg" xmlns:xlink="http://www.w3.org/1999/xlink" width="555pt" height="340pt" viewBox="0 0 555 340" version="1.1">
<g id="surface282">
<rect x="0" y="0" width="555" height="340" style="fill:rgb(100%,100%,100%);fill-opacity:1;stroke:none;"/>
<path style=" stroke:none;fill-rule:nonzero;fill:rgb(56.470588%,93.333333%,56.470588%);fill-opacity:1;" d="M 32.824219 316.949219 L 114.839844 316.949219 L 114.839844 242.789063 L 32.824219 242.789063 Z M 32.824219 316.949219 "/>
<path style=" stroke:none;fill-rule:nonzero;fill:rgb(56.470588%,93.333333%,56.470588%);fill-opacity:1;" d="M 114.839844 316.949219 L 196.855469 316.949219 L 196.855469 124.136719 L 114.839844 124.136719 Z M 114.839844 316.949219 "/>
<path style=" stroke:none;fill-rule:nonzero;fill:rgb(56.470588%,93.333333%,56.470588%);fill-opacity:1;" d="M 196.855469 316.949219 L 278.871094 316.949219 L 278.871094 49.976563 L 196.855469 49.976563 Z M 196.855469 316.949219 "/>
<path style=" stroke:none;fill-rule:nonzero;fill:rgb(56.470588%,93.333333%,56.470588%);fill-opacity:1;" d="M 278.871094 316.949219 L 360.886719 316.949219 L 360.886719 20.3125 L 278.871094 20.3125 Z M 278.871094 316.949219 "/>
<path style=" stroke:none;fill-rule:nonzero;fill:rgb(56.470588%,93.333333%,56.470588%);fill-opacity:1;" d="M 360.886719 316.949219 L 442.902344 316.949219 L 442.902344 287.285156 L 360.886719 287.285156 Z M 360.886719 316.949219 "/>
<path style=" stroke:none;fill-rule:nonzero;fill:rgb(56.470588%,93.333333%,56.470588%);fill-opacity:1;" d="M 442.902344 316.949219 L 524.917969 316.949219 L 524.917969 302.117188 L 442.902344 302.117188 Z M 442.902344 316.949219 "/>
</g>
</svg>
