<?xml version="1.0" encoding="UTF-8"?>
<svg xmlns="http://www.w3.org/2000/svg" xmlns:xlink="http://www.w3.org/1999/xlink" width="555pt" height="340pt" viewBox="0 0 555 340" version="1.1">
<g id="surface287">
<rect x="0" y="0" width="555" height="340" style="fill:rgb(100%,100%,100%);fill-opacity:1;stroke:none;"/>
<path style=" stroke:none;fill-rule:nonzero;fill:rgb(56.470588%,93.333333%,56.470588%);fill-opacity:1;" d="M 32.824219 316.949219 L 58.722656 316.949219 L 58.722656 20.3125 L 32.824219 20.3125 Z M 32.824219 316.949219 "/>
<path style=" stroke:none;fill-rule:nonzero;fill:rgb(56.470588%,93.333333%,56.470588%);fill-opacity:1;" d="M 58.722656 316.949219 L 84.621094 316.949219 L 84.621094 204.707031 L 58.722656 204.707031 Z M 58.722656 316.949219 "/>
<path style=" stroke:none;fill-rule:nonzero;fill:rgb(56.470588%,93.333333%,56.470588%);fill-opacity:1;" d="M 84.621094 316.949219 L 110.519531 316.949219 L 110.519531 284.878906 L 84.621094 284.878906 Z M 84.621094 316.949219 "/>
<path style=" stroke:none;fill-rule:nonzero;fill:rgb(56.470588%,93.333333%,56.470588%);fill-opacity:1;" d="M 110.523438 316.949219 L 136.421875 316.949219 L 136.421875 260.828125 L 110.523438 260.828125 Z M 110.523438 316.949219 "/>
<path style=" stroke:none;fill-rule:nonzero;fill:rgb(56.470588%,93.333333%,56.470588%);fill-opacity:1;" d="M 162.320313 316.949219 L 188.21875 316.949219 L 188.21875 276.863281 L 162.320313 276.863281 Z M 162.320313 316.949219 "/>
<path style=" stroke:none;fill-rule:nonzero;fill:rgb(56.470588%,93.333333%,56.470588%);fill-opacity:1;" d="M 188.222656 316.949219 L 214.121094 316.949219 L 214.121094 300.914063 L 188.222656 300.914063 Z M 188.222656 316.949219 "/>
<path style=" stroke:none;fill-rule:nonzero;fill:rgb(56.470588%,93.333333%,56.470588%);fill-opacity:1;" d="M 214.121094 316.949219 L 240.019531 316.949219 L 240.019531 308.933594 L 214.121094 308.933594 Z M 214.121094 316.949219 "/>
<path style=" stroke:none;fill-rule:nonzero;fill:rgb(56.470588%,93.333333%,56.470588%);fill-opacity:1;" d="M 291.820313 316.949219 L 317.71875 316.949219 L 317.71875 308.933594 L 291.820313 308.933594 Z M 291.820313 316.949219 "/>
<path style=" stroke:none;fill-rule:nonzero;fill:rgb(56.470588%,93.333333%,56.470588%);fill-opacity:1;" d="M 395.417969 316.949219 L 421.316406 316.949219 L 421.316406 308.933594 L 395.417969 308.933594 Z M 395.417969 316.949219 "/>
<path style=" stroke:none;fill-rule:nonzero;fill:rgb(56.470588%,93.333333%,56.470588%);fill-opacity:1;" d="M 499.015625 316.949219 L 524.914063 316.949219 L 524.914063 308.933594 L 499.015625 308.933594 Z M 499.015625 316.949219 "/>
</g>
</svg>
